<!-- by TradingView --><svg width="18" height="18" viewBox="0 0 18 18" xmlns="http://www.w3.org/2000/svg"><path d="M0 0h18v18H0V0z" fill="#F0F3FA"/><path d="M0-.01h5v18H0v-18zM13-.01h5v18h-5v-18z" fill="#4A89DC"/><path d="M11.35 10.52L9.83 9l1.45-1.45-.07-.76-.41-.42L9 8.17l-1.8-1.8-.41.42-.07.76L8.17 9l-1.52 1.52.83.83L9 9.83l1.52 1.52.83-.83z" fill="#D1D4DC"/><path d="M11.21 6.79l-.83.83A1.95 1.95 0 0 1 9 10.96a1.96 1.96 0 0 1-1.38-3.34l-.83-.83A3.12 3.12 0 0 0 9 12.13a3.13 3.13 0 0 0 2.21-5.34z" fill="#4CAF50"/></svg>