<!-- by TradingView --><svg width="18" height="18" fill="none" xmlns="http://www.w3.org/2000/svg"><path fill="#511732" d="M0 0h18v18H0z"/><path d="M5.462 14h.77v-3.933h-.773l-.959.694v.718l.947-.67h.015V14zM8.53 14c.942 0 1.513-.769 1.513-1.999v-.005c0-1.23-.571-1.996-1.512-1.996-.942 0-1.513.766-1.513 1.996v.005c0 1.23.571 1.999 1.513 1.999zm0-.648c-.462 0-.727-.501-.727-1.35v-.006c0-.85.265-1.348.728-1.348.463 0 .727.499.727 1.348v.005c0 .85-.264 1.35-.727 1.35zM11.988 14c.941 0 1.512-.769 1.512-1.999v-.005c0-1.23-.571-1.996-1.512-1.996-.942 0-1.513.766-1.513 1.996v.005c0 1.23.571 1.999 1.513 1.999zm0-.648c-.463 0-.728-.501-.728-1.35v-.006c0-.85.265-1.348.728-1.348.463 0 .728.499.728 1.348v.005c0 .85-.265 1.35-.728 1.35zM3 9h.831V7.411h1.616v-.64H3.83V5.734h1.77V5H3v4zM6.817 9h.832V5.734h1.15V5h-3.13v.734h1.148V9zM10.483 9c1.002 0 1.602-.472 1.602-1.214v-.002c0-.609-.374-.938-1.205-1.099l-.421-.083c-.457-.088-.66-.23-.66-.474v-.003c0-.276.255-.466.682-.469.41 0 .696.185.737.488l.003.032h.784l-.002-.05C11.964 5.446 11.4 5 10.48 5c-.88 0-1.514.466-1.514 1.173v.003c0 .582.396.946 1.18 1.099l.42.08c.492.1.687.23.687.493v.003c0 .294-.289.49-.748.49-.455 0-.782-.188-.834-.488l-.006-.03h-.784l.003.044C8.93 8.579 9.54 9 10.483 9zM12.369 9H15v-.734h-1.8v-.973H15v-.632h-1.8v-.927H15V5h-2.631v4z" fill="#fff"/></svg>