<!-- by TradingView --><svg xmlns="http://www.w3.org/2000/svg" width="18" height="18"><path fill="#F0F3FA" d="M0 0h18v18H0z"/><path d="M12.08 7.83c-.75-.34-.66-1.15-.58-1.53 0 .15.46.48 1.48.97.82.4.8 1.14.68 1.46a9.13 9.13 0 00-1.58-.9z" fill="url(#al4eopkrm)"/><path d="M10.4 7.93c.96 1.25.4 3.06 0 3.8 1.57-1.06 1.6-2.6 2.38-2.55.64.04.98.75 1.07 1.1.08-.17.21-.6.12-1a3.3 3.3 0 00-.79-1.18 2.18 2.18 0 01-1.59-.72c-.51 0-1 .37-1.18.55z" fill="url(#bl4eopkrm)"/><path d="M5.97 12.98A7 7 0 015.2 15a5.9 5.9 0 002.61-1.06l.68-1.98-.43-.77c-.4.98-1.55 1.6-2.08 1.79z" fill="url(#cl4eopkrm)"/><path d="M7.13 10.18c1.45.54 1.05 2.74.67 3.77.14-.1.47-.33.67-.51 1.8-2.72-.71-4.01-1.48-4.53A6.16 6.16 0 015 7.81c0 1.8.32 1.7 2.13 2.37z" fill="url(#dl4eopkrm)"/><path d="M10.4 8.58a4.42 4.42 0 01-.64 3.59 3.12 3.12 0 00-.72-3.1L7.06 7.35C5.58 4.08 7.47 3.07 8.61 3c-1.68 4.03 1.21 3.63 1.78 5.58z" fill="url(#el4eopkrm)"/><path d="M5.34 7.64c-.56-.7-.1-1.61.26-1.98.33.73 2.16 2.32 3.38 3.3 1.12.92.98 2.44.85 3.09-.3.8-1.04 1.26-1.37 1.39 1.18-1.98.45-2.84-.08-3.45-.52-.6-2.28-1.4-3.04-2.35z" fill="url(#fl4eopkrm)"/><defs><linearGradient id="al4eopkrm" x1="11.62" y1="6.44" x2="13.05" y2="8.63" gradientUnits="userSpaceOnUse"><stop stop-color="#F18B05"/><stop offset="1" stop-color="#FCC709"/></linearGradient><linearGradient id="bl4eopkrm" x1="10.85" y1="7.83" x2="13.75" y2="9.33" gradientUnits="userSpaceOnUse"><stop stop-color="#FB8E0D"/><stop offset="1" stop-color="#F6DD11"/></linearGradient><linearGradient id="cl4eopkrm" x1="8.7" y1="11.54" x2="5.61" y2="14.86" gradientUnits="userSpaceOnUse"><stop stop-color="#142382"/><stop offset="1" stop-color="#06A0C2"/></linearGradient><linearGradient id="dl4eopkrm" x1="7.05" y1="7.82" x2="7.05" y2="13.95" gradientUnits="userSpaceOnUse"><stop stop-color="#540481"/><stop offset="1" stop-color="#78057E"/></linearGradient><linearGradient id="el4eopkrm" x1="8.53" y1="3" x2="9.67" y2="11.5" gradientUnits="userSpaceOnUse"><stop stop-color="#FBA723"/><stop offset="1" stop-color="#FE8007"/></linearGradient><linearGradient id="fl4eopkrm" x1="7.49" y1="5.66" x2="9.1" y2="12.84" gradientUnits="userSpaceOnUse"><stop stop-color="#E30244"/><stop offset="1" stop-color="#F00B5D"/></linearGradient></defs></svg>