<!-- by TradingView --><svg width="18" height="18" fill="none" xmlns="http://www.w3.org/2000/svg"><path fill="url(#a)" d="M0 0h18v18H0z"/><path d="M13.953 7.08a1.158 1.158 0 0 1-.11.324c-.047.097-.1.206-.146.424-.02.087-.029.15-.037.207v.003l-.001.003a.993.993 0 0 1-.064.26 1.246 1.246 0 0 1-.23.393c-.11.128-.296.343-.544.369a.255.255 0 0 1-.085-.005c-.705-.313-1.31-.544-1.519-.596-.244-.06-.212-.521-.185-.929.012-.182.024-.354.014-.502-.034-.514-.139-1.077-.654-1.351-.307-.164-.704-.212-1.083-.213.07-.029.149-.068.234-.112h.003c.223-.113.5-.253.775-.277l.266-.026c.555-.054 1.034-.101 1.54.05.23.068.7.296.82.508.086.15.23.266.518.498.15.122.249.192.321.244l.003.002c.102.073.122.088.152.141.093.166.06.341.012.584zM11.377 9.19c.04.011.056.054.033.085-.074.099-.157.23-.257.391a7.686 7.686 0 0 1-.133.21.932.932 0 0 0-.156.513c-.01.144-.018.21-.116.268-.082.047-.166.063-.745.14a.722.722 0 0 0-.205.053c-.04.014-.08-.016-.078-.054.004-.07.007-.156.007-.264v-.022a2.475 2.475 0 0 0-.006-.243c-.008-.129-.009-.183.031-.24.048-.067.086-.087.148-.122.087-.047.206-.112.382-.323a.512.512 0 0 0 .127-.224c.006-.021.008-.03.08-.077.076-.05.308-.203.605-.16.078.012.178.037.283.068zM9.085 11.518a.063.063 0 0 1-.05.022c-.06.002-.102-.011-.13-.04-.06-.064-.052-.191-.038-.265l.245-.057c.02.113.028.277-.027.34zM9.104 10.749a.748.748 0 0 0-.008.102l.001.041c0 .035.002.09-.003.116a.67.67 0 0 1-.228.022c-.002-.021 0-.053 0-.075l.003-.05v-.052c0-.041-.001-.108.01-.128a.995.995 0 0 0 .072-.012.606.606 0 0 1 .16-.016.59.59 0 0 1-.007.052zM8.65 11.452c-.011.11-.05.245-.168.265-.053.01-.078-.004-.095-.018-.08-.064-.092-.257-.08-.396.052 0 .122-.01.204-.024.05-.008.1-.018.14-.026.005.052.008.125 0 .2zM8.595 11.06l-.266.081c.014-.09.032-.216.038-.3.005-.06.023-.077.028-.081.002-.001.006-.004.016-.004h.01l.168-.007c.007.068.007.22.006.311zM8.165 10.988a1.277 1.277 0 0 0-.043.203l-.334-.009c.02-.09.045-.181.074-.254.029-.072.06-.126.089-.142a.164.164 0 0 1 .152.013c.073.054.093.116.062.189zM8.041 11.875a.128.128 0 0 1-.09.05.114.114 0 0 1-.087-.023c-.105-.084-.096-.359-.092-.491a3.21 3.21 0 0 1 .358-.054c.01.11.013.396-.089.518zM7.606 11.174l-.044.105a.909.909 0 0 1-.278-.022l.083-.455c.137-.032.295-.042.334-.007.05.047-.051.28-.095.38zM7.455 11.944c-.064.07-.161.102-.296.1-.094 0-.127-.032-.144-.055-.075-.103-.002-.347.072-.502l.451.023c.005.028.009.06.01.097.005.11-.01.249-.093.337z" fill="#fff"/><path d="M11.185 8.636c-.407-.1-.372-.617-.338-1.116.012-.177.024-.344.014-.48-.03-.468-.121-.977-.554-1.207-.464-.247-1.225-.191-1.694-.14l-.002.001a1.637 1.637 0 0 1-.457.07c-.277-.013-.493-.115-.682-.204-.148-.07-.278-.13-.4-.13h-.019c-.364.021-.53.098-.683.216-.038.03-.085.115-.237.497-.077.193-.091.299-.106.401-.013.094-.026.19-.083.335-.04.1-.07.185-.098.267-.075.22-.135.393-.313.598-.021.025-.047.06-.077.101-.04.056-.09.125-.157.204-.047.057-.154.267-.148.331.009.102.047.166.09.24.044.073.094.155.103.27l.001.018c.016.18-.014.272-.41.579a3.917 3.917 0 0 0-.553.526c-.011.012.003.03.02.029a.451.451 0 0 1 .336.106c.012.01.03.014.046.008a.482.482 0 0 1 .203-.014c.08.007.162.027.217.07a.1.1 0 0 0 .078.02.399.399 0 0 1 .19.01.328.328 0 0 1 .116.065c.03.027.08.032.117.014a.3.3 0 0 1 .048-.02.464.464 0 0 1 .265.016c.04.013.084.024.12.046.062.035.102.085.128.142.021.043.09.058.133.03.053-.032.096-.036.14-.02a.124.124 0 0 1 .043.027c.031.032.082.063.128.054a.685.685 0 0 1 .402.044c.043.02.085.05.115.094l.004-.02a.025.025 0 0 1 .02-.019l.027-.007c.066-.018.402-.103.532.017.006.005.016.005.021 0a.184.184 0 0 1 .042-.03.332.332 0 0 1 .328.024c.02.014.05.01.066-.009a.167.167 0 0 1 .03-.03.19.19 0 0 1 .125-.035l.185-.008a3.085 3.085 0 0 0 .246-.021l.066-.011c.09-.017.191-.036.275-.003.08.032.07.112.06.182-.004.028-.008.058-.008.086l.001.04c.002.06.003.115-.01.158l.008.034c.009.032.049.05.081.033a.619.619 0 0 0 .152-.108.253.253 0 0 0 .013-.049c.012-.06.024-.18.026-.426v-.027a2.447 2.447 0 0 0-.006-.229c-.008-.133-.014-.238.062-.345.074-.104.146-.143.215-.181a.976.976 0 0 0 .324-.276c.075-.09.084-.126.092-.155.016-.067.042-.108.158-.184.094-.062.38-.25.767-.194a3.518 3.518 0 0 1 .535.147.139.139 0 0 1 .032.01c.175.062.346.13.459.185a.085.085 0 0 0 .096-.019.405.405 0 0 1 .113-.08c.016-.009.03-.015.041-.024.038-.028.038-.087-.007-.107a7.63 7.63 0 0 0-1.213-.417zm-3.872.108c-.125.479-.977 1.004-1.365 1.004h-.007a.207.207 0 0 1-.044-.006l-.013-.004a.679.679 0 0 1-.24-.129.295.295 0 0 1-.104-.15l-.007-.028a.436.436 0 0 1 .035-.35c.012-.021.022-.042.031-.061L5.61 9a3.816 3.816 0 0 0 .06-.135c.024-.057.027-.079.03-.101.004-.018.006-.039.015-.07.024-.09.036-.165.047-.233.02-.121.037-.227.113-.323a.28.28 0 0 1 .06-.058l.017-.012a.384.384 0 0 1 .06-.03l.021-.007a.783.783 0 0 1 .292-.02 1.696 1.696 0 0 1 .47.1l.016.006.03.011.04.015.045.018.013.005a.966.966 0 0 1 .214.118l.017.015a.414.414 0 0 1 .144.444zm.395-1.812-.016.086c-.039.196-.126.464-.45.533-.311.066-.385.08-.606.089H6.62c-.162 0-.473-.089-.528-.31-.035-.141.037-.244.155-.414l.064-.092c.157-.23.219-.396.268-.53.049-.13.089-.238.192-.327a.564.564 0 0 1 .239-.124c.072-.02.15-.03.227-.03.151 0 .302.038.41.113.048.033.117.1.157.3.02.102-.015.29-.096.706zm2.308.556c-.111.166-.172.257-.268.326-.191.136-.414.171-.597.171-.132 0-.244-.018-.31-.028-.189-.03-.542-.086-.66-.328a.23.23 0 0 1-.022-.117c0-.038 0-.102-.02-.254l-.002-.01A.643.643 0 0 1 8.14 7l.003-.012c.066-.294.084-.338.099-.364.034-.058.116-.08.182-.05.065.028.092.096.061.153-.006.017-.025.08-.077.307l-.002.012a.443.443 0 0 0 0 .174l.001.01c.022.166.022.241.022.282v.02l.002.005c.02.041.062.073.114.098.045.022.093-.016.083-.06-.056-.255-.05-.547.061-.73.037-.062.106-.163.172-.258v-.001l.02-.029.017-.023a11.265 11.265 0 0 1 .092-.132l.013-.018.005-.007.002-.003a.15.15 0 0 1 .006-.008l.007-.01v-.001l.002-.002.048-.06c.036-.042-.006-.096-.06-.075a.891.891 0 0 0-.173.09.149.149 0 0 1-.19-.02c-.046-.05-.037-.125.022-.165.07-.048.439-.282.881-.172.319.079.486.29.549.37.05.065.206.26.2.535-.003.208-.103.359-.286.632z" fill="#fff"/><path d="m7.144 6.055-.079.171a5.618 5.618 0 0 1-.182.378c-.063.105-.113.172-.153.225-.045.062-.082.11-.109.178a.665.665 0 0 0-.025.396c-.085-.008-.224-.058-.24-.122-.011-.048.023-.1.123-.243l.065-.095c.173-.252.242-.44.293-.577.056-.149.082-.211.17-.264a.389.389 0 0 1 .137-.047zM6.976 11.344c-.094.167-.21.32-.283.397-.06-.142-.165-.467-.138-.728a.463.463 0 0 1 .083-.236c.029-.04.11-.063.2-.063a.49.49 0 0 1 .203.042c.034.016.08.047.085.14.007.124-.061.291-.15.448z" fill="#fff"/><path d="M12.118 9.476c.008.005.012.012.008.02-.028.049-.061.083-.101.123-.048.05-.103.106-.154.194-.072.124-.096.238-.108.528-.014.341.001.533.012.672.011.135.018.217-.01.348-.056.266-.186.441-.351.664-.207.278-.421.565-.776.657-.033.009-.034.009-.126.01-.08 0-.214 0-.468.008-.463.014-.695.021-.894.055-.208.035-.317.073-.422.11-.095.034-.185.066-.358.096-.102.018-.256.038-.78.039-.543 0-.871 0-1.305-.042-.595-.06-.893-.089-1.092-.18-.467-.218-.665-.608-.992-1.254L4.2 11.52c-.004-.008.007-.015.016-.011a.295.295 0 0 0 .204.025c.005-.002.012 0 .014.005.021.05.054.094.11.12a.426.426 0 0 0 .18.026c.064 0 .128-.004.191-.01.034-.003.068.01.081.038.058.123.13.211.238.224l.023.002a.205.205 0 0 0 .095-.027c.052-.026.13-.01.17.03a.5.5 0 0 0 .071.058c.111.099.382.147.61.147a.852.852 0 0 0 .3-.042c.093-.04.093-.1.088-.125a3.568 3.568 0 0 1-.02-.13c-.002-.006.007-.008.01-.003.014.026.03.058.074.064l.017.002c.063 0 .162.018.178.07.01.027.021.053.038.076.038.052.115.114.269.117h.012c.176 0 .312-.05.403-.15a.426.426 0 0 0 .018-.02c.033-.04.13-.041.172-.008a.27.27 0 0 0 .205.056.285.285 0 0 0 .198-.105.446.446 0 0 0 .076-.144c.005-.016.03-.02.044-.01a.258.258 0 0 0 .166.056.34.34 0 0 0 .061-.006c.153-.026.23-.137.265-.26.002-.005.008-.006.012-.003.038.041.11.088.234.088h.02a.222.222 0 0 0 .161-.072.354.354 0 0 0 .072-.212c.002-.029.024-.054.055-.066.13-.05.282-.149.327-.217l.001-.002a.096.096 0 0 1 .064-.043.816.816 0 0 0 .178-.048.496.496 0 0 1 .134-.032c.588-.078.703-.095.83-.17.19-.11.2-.261.21-.409.008-.124.017-.265.128-.43.04-.06.087-.136.136-.216.085-.137.202-.327.288-.43.02-.024.056-.032.087-.02.2.073.368.147.404.173z" fill="#fff"/><path d="M6.406 10.997a2.99 2.99 0 0 0-.004.72c.009.088.022.178.038.269a.699.699 0 0 1-.259.03c-.213-.004-.42-.05-.482-.109l-.01-.008c-.051-.036-.085-.06-.09-.124-.002-.022.01-.043.032-.074l.05-.062c.036-.041.08-.093.126-.16a3.367 3.367 0 0 1 .263-.351c.038-.045.083-.099.15-.187a3.78 3.78 0 0 1 .124-.158c.057-.067.094-.103.118-.123a1.72 1.72 0 0 1-.019.112c-.011.061-.025.135-.037.225zM6.309 8.248l-.004.005c-.028.033-.06.07-.097.144a.778.778 0 0 0-.105.396c-.001.047-.002.084-.017.128a.94.94 0 0 1-.045.099c-.06.119-.138.275-.103.485-.048-.02-.123-.066-.133-.091a.806.806 0 0 0-.008-.034c-.017-.066-.028-.108.02-.204.126-.253.141-.313.151-.382a.332.332 0 0 1 .01-.045c.026-.1.04-.185.051-.254.017-.104.029-.173.069-.224.015-.02.056-.03.116-.03a.65.65 0 0 1 .079.006h.016zM6.143 10.74a.602.602 0 0 0-.045-.178l-.01-.02-.015-.022h-.001l-.008-.008a.184.184 0 0 0-.024-.018l-.016-.007a.05.05 0 0 0-.009-.003l-.002-.001-.002-.001H6.01l-.003-.002c-.04-.013-.082-.027-.125-.033H5.83l-.03.008-.013.005-.01.006h-.001l-.001.001-.014.012a.19.19 0 0 0-.01.01l-.002.001-.003.005a8.365 8.365 0 0 1-.17.22c-.036.048-.074.094-.11.14l-.061.079-.01.013.072.012c.054.008.109.017.164.023a2.332 2.332 0 0 0 .361.017 5.404 5.404 0 0 0 .168-.215.093.093 0 0 1-.017-.044zM5.737 11.15c-.01.075-.108.273-.26.461-.129.157-.207.195-.222.197-.062-.008-.123-.14-.172-.273-.02-.053-.037-.107-.051-.152a.931.931 0 0 1-.034-.32c.13.063.357.08.675.08h.001l.063.006zM5.51 10.521l-.004.006-.165.21-.085.108c-.016.02-.037.041-.055.064-.045-.009-.09-.018-.135-.029a1.253 1.253 0 0 1-.13-.039.083.083 0 0 0-.024-.026v-.002l.04-.069c.024-.042.05-.083.076-.124a.594.594 0 0 1 .19-.195l.013-.008a.27.27 0 0 1 .104-.034l.045.001h.005l.006.002.029.007a.195.195 0 0 1 .01.004l.024.014c-.012-.008.018.019.018.017.024.03.032.054.038.093zM5.077 10.322a.895.895 0 0 0-.237.27c-.035.056-.066.112-.098.169a.287.287 0 0 1-.01.017 1.124 1.124 0 0 1-.228-.071c.03-.05.067-.098.101-.145.049-.066.102-.13.159-.191.022-.024.044-.049.075-.064.03-.016.068-.012.103-.01.038.001.078.002.114.015a.135.135 0 0 1 .02.01zM4.916 11.506a.074.074 0 0 0-.014.012l-.009.002a1.997 1.997 0 0 1-.217.008c-.026 0-.05-.004-.061-.019-.018-.023-.023-.064-.03-.094a1.333 1.333 0 0 1-.012-.46c.09.028.183.05.279.064a1.123 1.123 0 0 0 .064.487zM4.624 10.272c-.08.086-.153.177-.218.271-.027.039-.057.078-.079.12a.373.373 0 0 1-.09-.036.887.887 0 0 1-.068-.041l-.03-.02-.007-.005c.007-.018.02-.038.028-.052a1.273 1.273 0 0 1 .181-.258c.018-.02.034-.044.062-.05a.22.22 0 0 1 .077-.001c.06.01.106.033.144.072zM4.007 10.645c0-.005.007-.005.01-.001.021.025.05.047.081.068l.042.027c.002.001.003.004.002.006a1.4 1.4 0 0 0-.055.361c0 .007-.012.009-.014.002-.04-.145-.092-.378-.066-.463zM4.4 10.903a1.528 1.528 0 0 0 0 .486.134.134 0 0 0-.045-.001H4.346l-.007-.001c-.016-.004-.018-.005-.031-.013a.154.154 0 0 1-.048-.045.315.315 0 0 1-.042-.162 1.243 1.243 0 0 1 .03-.321l.065.024.087.033z" fill="#fff"/><defs><linearGradient id="a" x1="9" y1="18" x2="9" y2="0" gradientUnits="userSpaceOnUse"><stop stop-color="#073183"/><stop offset="1" stop-color="#0054F9"/></linearGradient></defs></svg>