<!-- by TradingView --><svg width="18" height="18" xmlns="http://www.w3.org/2000/svg"><path d="M0 9a9 9 0 1118 0A9 9 0 010 9z" fill="#01C38D"/><path d="M10.192 4l-1.033.386V8.34l.466.335V5.663l1.733.9.298.17.25.041v-.448L9.626 5.143v-.412l.567-.25 2.041 1.182v1.173l-.952.572a.438.438 0 00-.194-.047.451.451 0 00-.448.453c0 .25.2.454.448.454.229 0 .42-.175.443-.407l.824-.453 1.117.555v2.223l-.948.453-3.666-2.11V4.386L7.807 4 5.25 5.481v1.352L4 7.513v2.971l1.25.683v1.352L7.808 14l1.05-.466V9.571l-.483-.254v2.83l-1.905-.918-.227.149v.296l2.132 1.066v.42l-.567.108-2.023-1.122v-1.065l.934-.489a.439.439 0 00.194.047.451.451 0 00.448-.453.451.451 0 00-.448-.454.448.448 0 00-.443.408l-1.052.5-.885-.454V7.814l.885-.453L9.159 9.47v4.064l1.033.466 2.558-1.481v-1.352l1.25-.68V7.516l-1.25-.68V5.48L10.192 4zM5.785 5.663L7.808 4.48l.567.251v.412l-2.59 1.42v-.9zm.191 1.363l2.399-1.363V8.34L5.976 7.026zm3.649 2.63l2.122 1.248-2.122 1.16V9.656zm0 3.505v-.421l2.608-1.444v.85l-2.04 1.122-.568-.107z" fill="#fff"/></svg>