<!-- by TradingView --><svg width="18" height="18" xmlns="http://www.w3.org/2000/svg"><path d="M0 9a9 9 0 1118 0A9 9 0 010 9z" fill="url(#paint0_linear)"/><path d="M8.973 4a2.46 2.46 0 00-.289.018 1.984 1.984 0 00-1.189.573c-.236.233-.468.47-.702.705l-.362.36c-.127.125-.256.249-.382.375-.117.116-.232.236-.349.353-.182.182-.366.362-.547.544-.14.143-.277.29-.416.434-.082.084-.17.163-.245.253-.33.388-.486.841-.49 1.444-.015.23.08.53.22.814.073.152.174.292.272.43.068.095.117.095.207.021.017-.013.032-.03.047-.045l.262-.274c.128-.132.257-.261.383-.393.133-.139.263-.279.396-.417.063-.066.13-.128.193-.194.136-.142.268-.287.404-.428.134-.138.271-.27.405-.408.15-.153.295-.31.445-.462.137-.14.28-.274.418-.414.18-.184.355-.372.535-.556.11-.113.224-.22.334-.332.15-.152.298-.307.449-.458.13-.13.263-.254.392-.383l.867-.87a.77.77 0 00.053-.06c.07-.087.075-.107-.012-.17-.137-.099-.276-.201-.428-.272A2.016 2.016 0 008.984 4h-.011zm2.223 1.81c-.27.01-.503.093-.678.31-.014.016-.03.03-.046.045-.157.152-.314.302-.47.455-.161.159-.32.32-.48.48-.134.133-.268.263-.4.396-.139.14-.273.282-.413.42-.145.145-.295.285-.44.428-.177.174-.352.35-.527.526l-.974.972-1.287 1.287c-.082.081-.085.092 0 .178l.62.622a.832.832 0 00.453.245c.168.03.338.032.505-.016a.77.77 0 00.331-.176l.51-.49c.119-.115.24-.227.359-.343.236-.233.468-.468.705-.7.193-.19.39-.375.583-.563l.797-.776.75-.73c.11-.107.213-.095.292.031.143.229.223.477.19.749-.027.23-.108.444-.268.614-.185.197-.381.383-.573.573-.137.135-.276.267-.412.402-.177.175-.351.351-.526.527-.028.028-.053.059-.08.087-.057.06-.115.12-.173.178-.13.129-.261.256-.39.386-.138.14-.273.282-.41.422-.011.013-.026.023-.038.035l-.44.428c-.069.067-.135.136-.203.203-.116.118-.235.233-.349.353-.068.073-.067.117.013.174.139.098.278.2.43.271.28.131.572.187.872.187h.006c.103 0 .206-.007.309-.018.413-.048.77-.218 1.078-.488.226-.198.429-.423.642-.636l.47-.474.443-.445.406-.407c.153-.15.309-.295.46-.446.154-.153.308-.308.457-.468.183-.197.272-.3.338-.397a2.18 2.18 0 00.345-1.477 2.13 2.13 0 00-.324-.85c-.094-.146-.143-.208-.43-.492a81.282 81.282 0 01-1.264-1.274.966.966 0 00-.769-.319z" fill="#fff"/><defs><linearGradient id="paint0_linear" x1="1.967" y1="3.438" x2="14.915" y2="16.717" gradientUnits="userSpaceOnUse"><stop stop-color="#EB5756"/><stop offset="1" stop-color="#EE8533"/></linearGradient></defs></svg>